M48
;Layer_Color=9474304
;FILE_FORMAT=2:5
INCH
;TYPE=PLATED
T1F00S00C0.01181
T2F00S00C0.02362
T3F00S00C0.02756
T4F00S00C0.03150
T5F00S00C0.03346
T6F00S00C0.03543
T7F00S00C0.07480
T8F00S00C0.11811
T9F00S00C0.17717
%
T01
X1098425Y0165354
X1104330
X1110236
X1116141
X1122047
X1127952
X1133858
X1139763
X1145669
X1142716Y0171260
X1145669Y0177165
X1142716Y0183071
X1145669Y0188976
X1142716Y0194882
X1136811
X1130905
X1125000
X1119094
X1113189
X1107283
X1101378
X1104330Y0200787
X1110236
X1116141
X1122047
X1127952
X1133858
X1139763
X1145669
X1142716Y0206693
X1136811
X1130905
X1125000
X1119094
X1113189
X1107283
X1101378
X1104330Y0212598
X1110236
X1116141
X1122047
X1127952
X1133858
X1139763
X1145669
X1142716Y0218504
X1136811
X1130905
X1125000
X1119094
X1116141Y0224409
X1122047
X1127952
X1133858
X1139763
X1145669
X1142716Y0230315
X1136811
X1130905
X1125000
X1119094
X1116141Y0236220
X1122047
X1127952
X1133858
X1139763
X1145669
X1142716Y0242126
X1136811
X1130905
X1125000
X1119094
X1116141Y0248031
X1122047
X1127952
X1133858
X1139763
X1145669
X1142716Y0253937
X1136811
X1130905
X1125000
X1119094
X1116141Y0259842
X1122047
X1127952
X1133858
X1139763
X1145669
X1142716Y0265748
X1136811
X1130905
X1125000
X1119094
X1116141Y0271654
X1127952
X1133858
X1139763
X1145669
X1142716Y0277559
X1136811
X1130905
X1127952Y0283465
X1133858
X1139763
X1145669
X1142716Y0289370
X1136811
X1130905
X1125000
X1122047Y0283465
X1127952Y0295275
X1133858
X1139763
X1145669
X1142716Y0301181
X1136811
X1130905
X1127952Y0307086
X1133858
X1139763
X1145669
X1116141Y0188976
X1110236
X1104330
X1107283Y0183071
X1113189
X1110236Y0177165
X1104330
X1107283Y0171260
X1113189
X1119094
X1101378
Y0183071
X1092519Y0165354
X1086614
X1080708
X1074803
X1068897
X1062992
X1057086
X1051181
X1045275
X1039370
X1033464
X1027559
X1021653
X1015748
X1009842
X1003937
X0998031
X0992126
X0986220
X0980315
X0974409
X0968504
X0962598
X0956693
X0950787
X0944882
X0938976
X0941929Y0171260
X0947834
X0953740
X0959645
X0965551
X0971456
X0977362
X0983267
X0989173
X0986220Y0177165
X0980315
X0974409
X0968504
X0962598
X0956693
X0950787
X0944882
X0938976
X0941929Y0183071
X0947834
X0953740
X0959645
X0965551
X0971456
X0977362
X0983267
X0989173
X0986220Y0188976
X0980315
X0974409
X0968504
X0962598
X0956693
X0950787
X0944882
X0938976
X0941929Y0194882
X0947834
X0953740
X0959645
X0965551
X0971456
X0977362
X0983267
X0989173
X0986220Y0200787
X0992126
X0998031
X1003937
X1009842
X1012795Y0194882
X1025591Y0200787
X1029528
X1033465
X1037402
X1041339
X1045276
X1049213
X1053150
X1057087
X1061024
X1064961
X1068898
X1072835
X1070867Y0204725
X1074804
X1072835Y0208662
X1068898
X1064961
X1061024
X1057087
X1053150
X1049213
X1045276
X1041339
X1037402
X1033465
X1029528
X1025591
X1023623Y0204725
X1027560
X1031497
X1035434
X1039371
X1043308
X1047245
X1051182
X1055119
X1059056
X1062993
X1066930
Y0212598
X1070867
X1074804
X1062993
X1059056
X1055119
X1051182
X1047245
X1043308
X1039371
X1035434
X1031497
X1027560
X1029528Y0216536
X1033465
X1037402
X1041339
X1045276
X1049213
X1053150
Y0224410
X1051182Y0228347
X1047245
X1043308
X1039371
X1035434
X1031497
X1033465Y0232284
X1037402
X1041339
X1045276
X1049213
X1053150
X1051182Y0236221
X1047245
X1049213Y0240158
X1053150
X1051182Y0244095
X1047245
X1043308
X1045276Y0248032
X1049213
X1053150
X1051182Y0251969
X1047245
X1043308
X1039371
X1035434
X1031497
X1033465Y0248032
X1037402
X1041339
X1029528
Y0232284
Y0224410
X1033465
X1037402
X1041339
X1039371Y0220473
X1035434
X1031497
X1012795Y0230315
X1006890
X1003937Y0236220
X1009842
X1012795Y0242126
X1009842Y0248031
X1012795Y0253937
Y0265748
X1006890
X1000984
X0995078
X0989173
X0983267
X0980315Y0271654
X0986220
X0992126
X0998031
X1003937
X1009842
X1012795Y0277559
X1006890
X1000984
X0995078
X0987315Y0277150
X0992126Y0283465
X0995078Y0289370
X0992126Y0295275
X0998031
X0995078Y0301181
X0992126Y0307086
X0980315
X0983267Y0301181
X0980315Y0295275
X0983267Y0289370
X0980315Y0283465
X0968504
X0962598
X0956693
X0959645Y0289370
X0962906Y0291835
X0956693Y0295275
X0959645Y0301181
X0956693Y0307086
X0941929Y0301181
X0938976Y0295275
Y0283465
Y0271654
X0944882
X0947834Y0265748
X0941929
X0938976Y0259842
X0944882
X0947834Y0253937
X0953740
X0950787Y0248031
X0956693
X0959645Y0242126
X0953740
X0947834
X0941929
X0938976Y0248031
X0944882
X0941929Y0253937
X0956693Y0259842
X0962598
X0965551Y0265748
X0959645
X0956693Y0271654
X0962598
X0968504
X0974409Y0259842
X0980315
X0986220
X0992126
X0998031
X1003937
X0995078Y0253937
X0989173
X0983267
X0977362
X0974409Y0248031
X0980315
X0986220
X0992126
X0998031
X0995078Y0242126
X0989173
X0983267
X0977362
Y0218504
X0983267
X0980315Y0212598
X0986220
X0992126
X0995078Y0206693
X0989173
X0983267
X0977362
X0971456
X0968504Y0212598
X0974409
X0971456Y0218504
X0965551
X0959645
X0953740
X0947834
X0941929
X0938976Y0212598
X0944882
X0950787
X0956693
X0962598
Y0200787
X0968504
X0974409
X0980315
X0956693
X0950787
X0944882
X0938976
X0941929Y0206693
X0947834
X1012795Y0171260
X1047245Y0173228
X1051182
X1055119
X1059056
X1062993
X1066930
X1070867
X1074804
X1072835Y0177165
X1068898
X1064961
X1061024
X1057087
X1053150
X1049213
X1045276
X1047245Y0181103
X1051182
X1055119
X1059056
X1062993
X1066930
X1070867
X1074804
X1072835Y0185039
X1068898
X1064961
X1061024
X1057087
X1053150
X1049213
X1045276
X1047245Y0188977
X1051182
X1055119
X1059056
X1062993
X1066930
X1070867
X1074804
X1072835Y0192913
X1068898
X1064961
X1061024
X1057087
X1053150
X1049213
X1045276
X1043308Y0196851
X1047245
X1051182
X1055119
X1059056
X1062993
X1066930
X1070867
X1074804
X1009842Y0283465
Y0295275
X1012795Y0301181
X1009842Y0307086
X0933071
X0920386Y0304866
X0912401Y0301181
X0906496
X0900590
X0894685
X0888779
X0882874
X0876968
X0871063
X0865157
X0859252
X0853346
X0847441
X0841535
X0835630
X0832677Y0295275
X0838582
X0844488
X0850393
X0856299
X0862204
X0868110
X0874016
X0879921
X0885826
X0891732
X0897637
X0903543
X0909449
X0915354
X0918307Y0289370
X0912401
X0906496
X0900590
X0894685
X0888779
X0882874
X0876968
X0871063
X0865157
X0859252
X0853346
X0847441
X0841535
X0835630
X0829724
X0823819
X0820866Y0283465
X0826771
X0832677
X0838582
X0844488
X0850393
X0856299
X0862204
X0868110
X0874016
X0879921
X0885826
X0891732
X0897637
X0903543
X0909449
X0915354
Y0271654
X0921260
X0927165
X0933071
X0936023Y0265748
X0930118
X0924212
X0921260Y0259842
X0927165
X0933071
X0936023Y0253937
X0930118
X0924212
X0918307
X0912401
X0906496
X0900590
X0894685
X0888779
X0882874
X0876968
X0874016Y0259842
X0879921
X0885826
X0891732
X0897637
X0903543
X0909449
X0906496Y0265748
X0900590
X0894685
X0888779
X0882874
X0876968
X0871063
X0865157
X0859252
X0853346
X0850393Y0259842
X0856299
X0862204
X0868110
X0859252Y0253937
X0856299Y0248031
X0862204
X0874016
X0879921
X0885826
X0891732
X0897637
X0903543
X0909449
X0906496Y0242126
X0924212
X0930118
X0936023
X0933071Y0248031
X0927165
X0921260
X0924212Y0218504
X0930118
X0934165Y0216126
X0933071Y0212598
X0927165
X0921260
X0924212Y0206693
X0930118
X0936023
X0933071Y0200787
X0936023Y0194882
X0933071Y0188976
X0936023Y0183071
X0933071Y0177165
X0936023Y0171260
X0930118
X0927165Y0165354
X0933071
X0921260
X0915354
X0909449
X0903543
X0897637
X0891732
X0885826
X0879921
X0874016
X0868110
X0862204
X0856299
X0850393
X0844488
X0838582
X0832677
X0826771
X0820866
X0814960
X0809055
X0803149
X0797244
X0791338
X0785433
X0782480Y0171260
Y0183071
Y0194882
Y0218504
X0788386
X0794291
X0800197
X0817913
X0823819
X0829835Y0216126
X0826771Y0212598
X0820866
X0823819Y0206693
X0829724
Y0194882
Y0183071
Y0171260
X0817913Y0206693
X0812008
X0809055Y0236220
X0803149
X0806102Y0242126
X0800197
X0797244Y0248031
X0803149
X0806102Y0253937
X0812008
X0817913
X0823819
X0829724
X0826771Y0259842
X0832677
X0838582
X0844488
X0841535Y0265748
X0835630
X0829724
X0823819
X0817913
X0820866Y0259842
Y0248031
X0817913Y0242126
X0800197Y0253937
X0794291
X0788386
X0782480
X0785433Y0259842
X0791338
X0797244
X0803149
X0806102Y0265748
X0800197
X0794291
X0788386
X0782480
Y0277559
X0788386
X0794291
X0800197
X0797244Y0283465
X0803149
X0806102Y0289370
X0812008
X0809055Y0295275
X0814960
X0817913Y0301181
X0823819
X0820866Y0307086
X0826771
X0814960
X0809055
X0803149
X0797244
X0791338
X0785433
X0788386Y0301181
X0794291
X0800197
X0806102
X0812008
X0803149Y0295275
X0797244
X0791338
X0785433
X0788386Y0289370
X0794291
X0800197
X0791338Y0283465
X0785433
X0782480Y0289370
Y0301181
X0812008Y0277559
X0817913
X0823819
X0829724
X0835630
X0841535
X0847441
X0853346
X0859252
X0865157
X0874016Y0271654
X0879921
X0885826
X0891732
X0897637
X0903543
X0909449
X0933071Y0283465
X0936023Y0289370
X0930228Y0294866
X0909449Y0307086
X0903543
X0897637
X0891732
X0885826
X0879921
X0874016
X0868110
X0862204
X0856299
X0850393
X0844488
X0856299Y0236220
X0862204
X0868110
X0874016
X0879921
X0885826
X0891732
X0888779Y0230315
X0882874
X0876968
X0871063
X0865157
X0859252
X0856299Y0224409
X0862204
X0868110
X0874016
X0879921
X0885826
X0891732
X0894685Y0218504
X0900590
X0906496
X0888779
X0885826Y0200787
Y0177165
X0888779Y0171260
X0882874
X0918307Y0206693
X0785433Y0224409
X0788386Y0230315
X0782480
X0785433Y0236220
Y0248031
X0791338
X0779527
X0773622
X0776575Y0253937
X0770669
X0767716Y0259842
X0773622
X0779527
X0776575Y0265748
X0770669
X0764763
X0761811Y0259842
X0758858Y0253937
X0752952
X0755905Y0248031
Y0236220
X0761811
X0767716
X0773622
X0779527
X0776575Y0230315
X0770669
X0764763
X0758858
X0752952
X0747047
X0750000Y0236220
Y0224409
X0755905
X0761811
X0767716
X0773622
X0779527
X0726378
X0720472
X0714567
X0708661
X0702756
X0705708Y0230315
X0711614
X0717520
X0723425
X0720472Y0236220
X0726378
X0723425Y0242126
X0717520
X0711614
X0705708
X0702756Y0248031
X0708661
X0714567
X0720472
X0726378
X0723425Y0253937
X0717520
X0711614
X0705708
X0702756Y0259842
X0708661
X0714567
X0720472
X0726378
X0729330Y0265748
X0735236
X0741142
X0752952
Y0277559
X0758858
X0764763
X0770669
X0776575
X0773622Y0283465
X0779527
X0776575Y0289370
X0770669
X0764763
X0758858
X0752952
X0750000Y0295275
X0755905
X0761811
X0767716
X0773622
X0779527
X0776575Y0301181
X0770669
X0764763
X0758858
X0752952
X0750000Y0307086
X0755905
X0761811
X0767716
X0773622
X0779527
X0767716Y0283465
X0761811
X0755905
X0750000
X0738189
X0732283
X0726378
X0720472
X0714567
X0717520Y0289370
X0723425
X0729330
X0735236
X0741142
X0738189Y0295275
X0732283
X0726378
X0720472
X0714567
X0708661
X0711614Y0301181
X0717520
X0723425
X0729330
X0735236
X0741142
X0738189Y0307086
X0732283
X0726378
X0720472
X0714567
X0708661
X0705708Y0301181
X0711614Y0289370
X0702756Y0283465
X0705708Y0277559
X0702756Y0271654
X0708661
X0714567
X0721567Y0271244
X0723425Y0265748
X0717520
X0711614
X0705708
X0723425Y0277559
X0729330
X0735236
X0741142
X0714567Y0236220
X0708661
X0702756
X0705708Y0218504
X0711614
X0717520
X0723425
X0720472Y0212598
X0726378
X0723425Y0206693
X0717520
X0711614
X0705708
X0702756Y0212598
X0708661
X0714567
Y0200787
X0720472
X0726378
X0723425Y0194882
X0717520
X0711614
X0705708
X0702756Y0200787
X0708661
X0702756Y0188976
Y0177165
X0705708Y0171260
X0702756Y0165354
X0708661
X0714567
X0720472
X0726378
X0732283
X0738189
X0744094
X0750000
X0755905
X0761811
X0767716
X0773622
X0779527
X0729330Y0171260
Y0312992
X0735236
X0741142
X0738189Y0318898
X0732283
X0726378
X0720472
X0714567
X0708661
X0711614Y0324803
X0717520
X0723425
X0729330
X0735236
X0741142
X0738189Y0330709
X0732283
X0726378
X0720472
X0714567
X0708661
X0711614Y0336614
X0717520
X0723425
X0729330
X0735236
X0741142
X0738189Y0342520
X0732283
X0726378
X0720472
X0714567
X0708661
X0711614Y0348425
X0717520
X0723425
X0729330
X0735236
X0741142
X0738189Y0354331
X0732283
X0726378
X0720472
X0714567
X0708661
X0711614Y0360236
X0717520
X0723425
X0729330
X0735236
X0741142
X0738189Y0366142
X0732283
X0726378
X0720472
X0714567
X0708661
X0711614Y0372047
X0717520
X0723425
X0729330
X0735236
X0741142
X0738189Y0377953
X0732283
X0726378
X0720472
X0714567
X0708661
X0711614Y0383858
X0705708
X0708661Y0389764
X0714567
X0717520Y0395669
X0723425
X0729330
X0726378Y0401575
X0732283
X0738189
X0741142Y0407480
X0735236
X0729330
X0723425
X0717520
X0711614
X0705708
X0708661Y0413386
X0714567
X0720472
X0726378
X0732283
X0738189
X0744094
X0750000
X0761811
X0767716
X0773622
X0779527
X0776575Y0407480
X0770669
X0764763
X0758858
X0755905Y0401575
X0761811
X0767716
X0773622
X0779527
X0776575Y0395669
X0770669
X0764763
X0758858
X0755905Y0389764
X0761811
X0750000
X0744094
X0740858Y0389748
X0738189Y0389764
X0723425Y0383858
X0720472Y0401575
X0714567
X0708661
X0711614Y0395669
X0705708
Y0419291
X0711614
Y0431102
X0723425
X0729330
X0735236
X0741142
X0747047
X0752952
X0758858
X0764087Y0428724
X0767716Y0425197
X0773622
X0776575Y0431102
X0770669
X0779527Y0437008
X0776575Y0442913
X0773622Y0448819
X0767716
X0761811
X0755905
X0750000
X0752952Y0454724
X0758858
X0764763
Y0466535
X0758858
X0752952
X0747047
X0741142
X0735236
X0729330
X0723425
X0717520
X0714567Y0460630
X0720472
X0726378
X0732283
X0738189
X0735236Y0454724
X0729330
X0723425
X0717520
X0711614
X0705708
X0708661Y0460630
X0705708Y0466535
X0708661Y0448819
X0714567
X0720472
X0726378
X0729330Y0442913
X0738189Y0448819
Y0437008
Y0425197
X0744094
X0750000
X0755905
X0758858Y0442913
X0747047
X0750000Y0460630
X0776575Y0466535
X0732283Y0425197
X0726378
X0750000Y0401575
X0755905Y0377953
X0758968Y0367701
X0761811Y0366142
X0767716
X0773622
X0779527
X0776575Y0372047
X0770669
X0764763
Y0360236
X0770669
X0776575
X0773622Y0354331
X0779527
X0776575Y0348425
X0770669
X0767716Y0354331
Y0342520
X0773622
X0779527
X0776575Y0336614
X0770669
X0764763
X0758858
X0752952
X0750000Y0342520
X0755905
X0761811
Y0330709
X0767716
X0773622
X0779527
X0776575Y0324803
X0770669
X0764763
X0758858
X0752952
X0750000Y0330709
X0755905
Y0318898
X0761811
X0767716
X0773622
X0779527
X0776575Y0312992
X0770669
X0764763
X0758858
X0752952
X0750000Y0318898
X0723425Y0312992
X0717520
X0711614
X0705708
Y0324803
Y0336614
Y0348425
Y0360236
Y0372047
X0758858Y0360236
X0755905Y0354331
X0779527Y0377953
X0785433
X0791338
X0797244
X0803149
X0809055
X0814960
X0817913Y0383858
X0812008
X0806102
X0800197
X0794291
X0788386
X0782480
X0785433Y0389764
X0791338
X0797244
X0800197Y0395669
X0794291
X0788386
X0791338Y0401575
X0797244
X0803149
X0809055
X0812008Y0407480
X0809055Y0413386
X0820866
X0826771
X0832677
X0829724Y0407480
X0823819
X0826771Y0401575
X0812008Y0395669
Y0372047
X0817913
X0806102
X0800197
X0794291
X0788386
X0782480
X0785433Y0366142
X0791338
X0797244
X0800197Y0360236
X0794291
X0788386
X0782480
X0785433Y0354331
X0791338
X0797244
X0803149
X0809055
X0814960
X0820866
X0823819Y0360236
Y0348425
X0820866Y0342520
X0832677
X0835630Y0348425
X0841535
X0838582Y0354331
X0844488
X0847441Y0360236
X0841535
X0844488Y0366142
X0847441Y0372047
X0859252
X0865157
X0871063
X0868110Y0366142
X0862204
X0856299
X0859252Y0360236
X0867236Y0359827
X0868110Y0354331
X0862204
X0856299
X0859252Y0348425
X0865157
X0871063
X0882874
X0888779
X0894685
X0900590
X0906496
X0912401
X0909449Y0342520
X0915354
X0903543
X0897637
X0891732
X0885826
X0879921
X0882874Y0336614
X0888779
X0894685
X0900590
X0906496
X0903543Y0330709
X0909449
X0906496Y0324803
X0900590
X0894685
X0888779
X0882874
X0876968
X0871063
X0865157
X0859252
X0856299Y0318898
X0862204
X0868110
X0874016
X0879921
X0885826
X0891732
X0897637
X0903543
X0909449
X0906496Y0312992
X0900590
X0894685
X0888779
X0882874
X0876968
X0871063
X0865157
X0859252
X0853346
X0847441
Y0324803
X0841535
X0835630
X0829724
X0823819
X0817913
X0812008
X0806102
X0800197
X0794291
X0788386
X0782480
X0785433Y0330709
X0791338
X0797244
X0803149
X0809055
X0814960
X0820866
X0826771
X0832677
X0838582
X0844488
X0850393
X0853346Y0336614
X0859252
X0856299Y0342520
X0862204
X0850393
X0853346Y0348425
X0847441Y0336614
X0871063
X0876968
X0874016Y0330709
X0879921
X0885826
X0891732
X0897637
Y0354331
X0903543
X0906496Y0360236
X0912401
X0918307
X0920386Y0357110
X0915858Y0355890
X0924212Y0360236
X0921260Y0366142
X0927165
X0924212Y0372047
X0918307
X0912401
X0906496
X0900590
X0894685
X0888779
X0882874
X0879921Y0366142
X0885826
X0891732
X0897637
X0903543
X0909449
Y0377953
X0915354
X0918307Y0383858
X0912401
X0906496
X0900590
X0894685
X0888779
X0882874
X0879921Y0389764
X0885826
X0891732
X0897637
X0903543
X0909449
X0915354
X0921260
X0927165
X0930228Y0382386
X0927165Y0377953
Y0401575
X0921260
X0915354
X0909449
X0906496Y0407480
X0918307
X0915354Y0413386
X0921260
X0927165
X0930118Y0419291
X0924212
X0918307
X0912401
X0906496
X0903543Y0425197
X0909449
X0915354
X0921260
X0927165
X0930118Y0431102
X0924212
X0918307
X0912401
X0906496
X0903543Y0437008
X0906496Y0442913
X0918307
X0930118
Y0454724
X0924212
X0918307
X0912401
X0906496
X0900590
X0897637Y0460630
X0903543
X0909449
X0915354
X0921260
X0927165
X0930118Y0466535
X0924212
X0918307
X0912401
X0906496
X0900590
X0897637Y0448819
X0894685Y0442913
X0891732Y0437008
X0894685Y0431102
X0891732Y0425197
X0885826
X0879921
X0874016
X0871063Y0419291
X0868110Y0413386
X0862204
X0856299Y0401575
X0859252Y0395669
X0865157
X0862204Y0389764
X0868110
X0871063Y0383858
X0865157
X0859252
X0856299Y0389764
Y0377953
X0838582
X0841535Y0383858
X0835630
Y0372047
X0832677Y0354331
X0812008Y0360236
Y0348425
X0806102
X0800197
X0794291
X0788386
X0782480
X0785433Y0342520
X0791338
X0797244
X0800197Y0336614
X0794291
X0788386
X0782480
X0785433Y0318898
X0791338
X0797244
X0803149
X0809055
X0814960
X0820866
X0826771
X0832677
X0838582
X0835630Y0312992
X0829724
X0823819
X0817913
X0812008
X0806102
X0800197
X0794291
X0788386
X0782480
X0812008Y0336614
X0868110Y0330709
X0879921Y0354331
X0885826
X0891732
X0894685Y0360236
X0900590
X0888779
X0882874
X0885826Y0377953
X0891732
X0897637
X0903543
X0891732Y0401575
X0885826
X0879921
X0885826Y0413386
X0891732
X0894685Y0419291
X0888779
X0882874
Y0431102
X0876968Y0454724
Y0466535
X0865157
X0859252
X0856299Y0460630
X0862204
X0868110
X0865157Y0454724
X0859252
X0853346
X0847441
X0850393Y0448819
X0856299
X0862204
X0868110
X0865157Y0442913
X0859252
X0853346
X0847441
X0846370Y0438567
X0833378
X0838582Y0448819
X0823819Y0454724
X0817913
X0812008
X0806102
X0800197
X0794291
X0788386
X0782480
X0785433Y0448819
X0791338
X0797244
X0803149
X0809055
X0814960
X0812008Y0442913
X0806102
X0800197
X0794291
X0788386
X0791338Y0437008
X0797244
X0803149
X0797244Y0425197
X0791338
Y0413386
X0797244
X0800197Y0407480
X0794291
X0788386
X0817913Y0431102
X0853346
X0829724Y0466535
X0823819
X0817913
X0812008
X0806102
X0800197
X0794291
X0788386
X0782480
X0930118Y0407480
X0930228Y0347110
X0931803Y0342110
Y0332110
X0930118Y0324803
X0927165Y0318898
X0933071
X0936023Y0312992
X0930118
X0924212
X0941929
X0947354Y0319669
X0951882Y0318488
X0956693Y0318898
X0959645Y0312992
X0965551
X0968504Y0318898
X0971456Y0324803
X0965551
X0956693Y0330709
X0952669Y0327110
X0953740Y0336614
X0953850Y0342110
X0953740Y0348425
X0959645
X0956693Y0354331
X0962598
X0965551Y0360236
X0971456
X0983267
X0980315Y0366142
X0983267Y0372047
X0980315Y0377953
X0983267Y0383858
X0980315Y0389764
X0983267Y0395669
X0980315Y0401575
X0983267Y0407480
X0980315Y0413386
X0983267Y0419291
X0980315Y0425197
X0983267Y0431102
X0980315Y0437008
X0983267Y0442913
X0980315Y0448819
X0983267Y0454724
X0980315Y0460630
X0983267Y0466535
X0995078
X0992126Y0460630
X0998031
X0995078Y0454724
X0992126Y0448819
X0998031
X1003937
X1009842
X1012795Y0454724
Y0442913
X1006890
X1000984
X0995078
X0992126Y0437008
X0998031
X1003937
X1009842
X1012795Y0431102
X1006890
X1000984
X0995078
X0992126Y0425197
X0998031
X1003937
X1009842
X1012795Y0419291
X1006890
X1000984
X0995078
X0992126Y0413386
X0998031
X1003937
X1009842
X1012795Y0407480
X1006890
X1000984
X0995078
X0992126Y0401575
X0998031
X1003937
X1009842
X1012795Y0383858
X1009842Y0377953
X1012795Y0372047
X1006890
X1000984
X0995078
X0992126Y0377953
X0998031
X0995078Y0383858
X0992126Y0389764
X0998031
X0995078Y0395669
X0992126Y0366142
X0998031
X1003937
X1009842
X1012795Y0360236
X1006890
X1000984
X0995078
Y0348425
X0992126Y0342520
X0998031
X0995078Y0336614
X0992126Y0330709
X0998031
X1000984Y0324803
X0998031Y0318898
X1003937
X1009842
X1012795Y0324803
X1009842Y0330709
X1012795Y0348425
X1009842Y0354331
X0980315
X0983267Y0348425
X0980315Y0342520
X0983267Y0336614
X0980315Y0330709
X0983267Y0324803
X0980315Y0318898
X0983267Y0312992
X0992126Y0318898
X1000984Y0312992
X1012795
X1031497Y0362205
X1035434
X1039371
X1043308
X1047245
X1051182
X1053150Y0366142
X1049213
X1045276
X1041339
X1037402
X1033465
X1029528
X1031497Y0370079
X1035434
X1039371
X1043308
X1047245
X1051182
X1053150Y0374016
X1049213
X1045276
X1047245Y0377953
X1051182
X1053150Y0381890
X1049213
X1045276
X1043308Y0385827
X1047245
X1051182
X1053150Y0389764
X1049213
X1045276
X1041339
X1037402
X1033465
X1029528
X1031497Y0385827
X1035434
X1039371
X1029528Y0381890
X1051182Y0393701
X1053150Y0397638
X1049213
X1051182Y0401575
X1053150Y0405512
X1049213
X1045276
X1047245Y0409449
X1051182
X1053150Y0437008
X1049213
X1045276
X1041339
X1037402
X1033465
X1029528
X1031497Y0440945
X1035434
X1039371
X1043308
X1047245
X1051182
X1053150Y0444882
X1049213
X1045276
X1047245Y0448819
X1051182
X1053150Y0452756
X1049213
X1045276
X1043308Y0456693
X1047245
X1051182
X1053150Y0460630
X1049213
X1045276
X1041339
X1037402
X1033465
X1029528
X1031497Y0456693
X1035434
X1039371
X1029528Y0452756
X1031497Y0433071
X1035434
X1039371
X1041339Y0429134
X1037402
X1033465
X0971456Y0431102
X0965551
X0959645
X0953740
X0947834
X0941929
X0944882Y0437008
X0950787
X0956693
X0962598
X0968504
X0971456Y0442913
X0965551
X0959645
X0953740
X0947834
X0941929
Y0454724
X0947834
X0952669Y0453528
X0956693Y0460630
X0962598
X0959645Y0466535
X0947834
X0941929
X0938976Y0460630
X0944882
Y0425197
X0950787
X0956693
X0962598
X0968504
X0971456Y0419291
X0965551
X0959645
X0953740
X0947834
X0941929
X0944882Y0413386
X0950787
X0956693
X0962598
X0968504
X0971456Y0407480
X0965551
X0959645
X0953740
X0947834
X0941929
X0938976Y0401575
X0944882
X0950787
X0956693
X0962598
X0959645Y0395669
X0953740
X0947834
X0941929
X0938976Y0389764
X0944882
X0950787
X0956693
X0962598
Y0377953
X0956693
X0950787
X0944882
X0938976
X0941929Y0372047
X0947834
X0953740
X0959645
X0965551
X0971456
X0959645Y0360236
X0953740
X0950787Y0354331
X0941929Y0360236
X0947354Y0366520
X0938378Y0347110
X0962598Y0342520
X1127952
X1133858
X1139763
X1145669
X1142716Y0348425
X1136811
X1130905
X1127952Y0354331
X1133858
X1139763
X1145669
X1142716Y0360236
X1136811
X1130905
X1127952Y0366142
X1133858
X1139763
X1145669
X1142716Y0372047
X1136811
X1130905
X1125000
X1119094
X1116141Y0377953
X1122047
X1127952
X1133858
X1139763
X1145669
X1142716Y0383858
X1136811
X1130905
X1125000
X1119094
X1116141Y0389764
X1122047
X1127952
X1133858
X1139763
X1145669
X1142716Y0395669
X1136811
X1130905
X1125000
X1119094
X1116141Y0401575
X1122047
X1127952
X1133858
X1139763
X1145669
X1142716Y0407480
X1136811
X1130905
X1125000
X1119094
X1116141Y0413386
X1122047
X1127952
X1133858
X1139763
X1145669
X1142716Y0419291
X1136811
X1130905
X1125000
X1119094
X1116141Y0425197
X1122047
X1127952
X1133858
X1139763
X1145669
X1142716Y0431102
X1136811
X1130905
X1125000
X1119094
X1116141Y0437008
X1122047
X1127952
X1133858
X1139763
X1145669
X1142716Y0442913
X1136811
X1130905
X1125000
X1119094
X1116141Y0448819
X1122047
X1127952
X1133858
X1139763
X1145669
X1142716Y0454724
X1136811
X1130905
X1125000
X1119094
X1116141Y0460630
X1122047
X1127952
X1133858
X1139763
X1145669
X1142716Y0466535
X1136811
X1130905
X1125000
X1119094
X1116141Y0366142
X1122047Y0354331
X1130905Y0336614
X1136811
X1142716
X1139763Y0330709
X1145669
X1142716Y0324803
X1136811
X1130905
X1127952Y0330709
X1133858
Y0318898
X1139763
X1145669
X1142716Y0312992
X1136811
X1130905
X1127952Y0318898
Y0472441
X1133858
X1139763
X1145669
X1142716Y0478346
X1136811
X1130905
X1127952Y0484252
X1133858
X1139763
X1145669
X1142716Y0490157
X1136811
X1130905
X1125000
X1119094
X1116141Y0484252
Y0472441
X1122047
X1127952Y0496063
X1133858
X1139763
X1145669
X1142716Y0501968
X1136811
X1130905
X1127952Y0507874
X1133858
X1139763
X1145669
X1142716Y0513779
X1136811
X1130905
X1127952Y0519685
X1133858
X1139763
X1145669
X1142716Y0525590
X1136811
X1130905
X1127952Y0531496
X1133858
X1139763
X1145669
X1142716Y0537401
X1136811
X1130905
X1127952Y0543307
X1133858
X1139763
X1145669
X1142716Y0549212
X1136811
X1130905
X1127952Y0555118
X1133858
X1139763
X1145669
X1142716Y0561023
X1136811
X1130905
X1125000
X1122047Y0566929
X1127952
X1133858
X1139763
X1145669
X1142716Y0572834
X1136811
X1130905
X1127952Y0578740
X1133858
X1139763
X1145669
X1142716Y0584646
X1136811
X1130905
X1125000
X1119094
X1116141Y0590551
X1122047
X1127952
X1133858
X1139763
X1145669
X1142716Y0596456
X1136811
X1130905
X1125000
X1119094
X1116141Y0602362
Y0614173
X1119094Y0620079
X1142716
X1145669Y0614173
Y0602362
X1122047Y0578740
X1116141
Y0566929
X1053150Y0570866
X1049213
X1045276
X1041339
X1037402
X1033465
X1029528
X1031497Y0574803
X1035434
X1039371
X1043308
X1047245
X1051182
X1053150Y0578741
X1049213
X1045276
X1041339
X1037402
X1033465
X1029528
Y0594488
X1033465
X1037402
X1041339
X1045276
X1049213
X1053150
X1051182Y0598425
X1047245
X1043308
X1039371
X1035434
X1031497
X1043308Y0590552
X1047245
X1051182
X1053150Y0586615
X1049213
X1047245Y0582678
X1051182
X1053150Y0602362
X1049213
X1051182Y0606299
X1053150Y0610237
X1049213
X1047245Y0614174
X1051182
X1009842Y0614173
X1003937
X0998031
X0992126
X0986220
X0980315
X0976882Y0613764
X0977362Y0620079
X0983267
X0989173
X0995078
X1000984
X1006890
X1012795
X1006890Y0608267
X1000984
X0995078
X0989173
X0983267
X0980315Y0602362
X0986220
X0992126
X0998031
X1000984Y0596456
X1006890
X1012795
Y0584646
X1006890
X1000984
X0995078
X0989173
X0983267
X0980315Y0590551
X0986220
X0992126
X0998031
X0995078Y0596456
X0989173
X0983267
X0971456
X0965551
X0959645
X0953740
X0950787Y0602362
X0956693
X0962598
X0965551Y0608267
X0959645
X0953740
X0950787Y0614173
X0956693
X0962598
X0968504
X0938976
X0941929Y0608267
X0938976Y0602362
X0941929Y0596456
Y0584646
X0938976Y0578740
X0947354Y0575378
X0950787Y0578740
X0956693
X0962598
X0968504
X0971456Y0584646
X0965551
X0959645
X0953740
Y0572834
X0959645
X0965551
X0971456
X0968504Y0566929
X0962598
X0956693
X0959645Y0561023
X0965551
X0962598Y0555118
X0956693
X0953850Y0550772
X0959645Y0549212
X0965551
X0971456
X0983267
X0980315Y0555118
X0986220
X0989173Y0561023
X0983267
X0980315Y0566929
X0986220
X0992126
X0998031
X1003937
X1009842
X1012795Y0572834
X1006890
X1000984
X0995078
X0989173
X0983267
X0980315Y0578740
X0986220
X0992126
X0998031
X1003937
X1009842
X1012795Y0561023
Y0549212
X1006890
X1000984
X0995078
X0992126Y0543307
X0998031
X1000984Y0537401
X0995078
X0992126Y0531496
X0998031
X1000984Y0525590
X1006890
X1012795
X1009842Y0531496
X1012795Y0537401
X1009842Y0519685
X1012795Y0513779
X0995078
X0992126Y0507874
X0998031
X0995078Y0501968
X0992126Y0496063
X0998031
X1000984Y0490157
X0998031Y0484252
X1003937
X1009842
X1012795Y0490157
X1009842Y0496063
X1012795Y0478346
X1006890
X1000984
X0995078
X0992126Y0484252
Y0472441
X0998031
X1003937
X1009842
X0980315
X0983267Y0478346
X0980315Y0484252
X0983267Y0490157
X0980315Y0496063
X0983267Y0501968
X0980315Y0507874
X0983267Y0513779
X0980315Y0519685
X0983267Y0525590
X0980315Y0531496
X0983267Y0537401
X0980315Y0543307
X0971456Y0537401
X0965551
X0962598Y0543307
X0956693
X0950787
X0952669Y0535811
X0941929Y0537401
Y0549212
X0938378Y0555772
X0938976Y0566929
X0953740Y0561023
X0947354Y0528134
X0956693Y0519685
Y0507874
X0961331Y0506677
X0959645Y0501968
X0956693Y0496063
X0962598
X0965551Y0490157
X0971456
X0968504Y0484252
X0962598
X0956693
X0959645Y0490157
Y0478346
X0965551
X0971456
X0962598Y0472441
X0956693
X0944882
X0938976
X0941929Y0478346
X0947834
X0944882Y0484252
X0938976
X0941929Y0490157
X0938976Y0496063
X0941929Y0501968
X0938976Y0507874
X0965551Y0525590
X0971456
X0968504Y0531496
X0995078Y0525590
X0998031Y0555118
X0930228Y0555772
X0931803Y0550772
Y0542504
X0933071Y0531496
X0927165
X0930118Y0525590
X0920386Y0513528
X0909756Y0511402
X0907394Y0508449
X0906496Y0513779
X0900590
X0893614Y0514354
X0897157Y0522425
X0900590Y0525590
X0903543Y0531496
X0909449
Y0543307
X0903543
X0912401Y0549212
X0909449Y0555118
X0915354
X0912401Y0561023
X0909449Y0566929
X0915354
X0920425Y0565772
X0918307Y0572834
X0924212
X0921260Y0578740
X0927165
X0933071
X0936023Y0584646
Y0596456
X0930118
X0930228Y0591047
X0927165Y0590551
X0921260
X0924212Y0596456
X0918307
X0921260Y0602362
X0927165
X0933071
X0936023Y0608267
X0930118
X0924212
X0918307
X0912401
X0906496
X0900590
X0894685
X0891732Y0614173
X0897637
X0903543
X0909449
X0915354
X0921260
X0927165
X0933071
X0924212Y0584646
X0918307
X0912401
X0906496
X0900590
X0897637Y0578740
X0903543
X0909449
X0915354
X0912401Y0572834
X0906496
X0900590
X0894685
X0884953Y0574394
X0884362Y0565772
X0879921Y0566929
X0874016
X0876968Y0561023
X0871063
X0859252
X0853346
X0847441
X0841535
X0838582Y0555118
X0844488
X0850393
X0856299
X0862204
X0865157Y0549212
X0859252
X0853346
X0847441
X0841535
X0838582Y0543307
X0844488
X0850393
X0847441Y0537401
X0850393Y0531496
X0847441Y0525590
X0843614Y0528724
Y0518291
Y0502543
X0859252Y0501968
X0865157
X0871063
X0876968
X0874016Y0507874
X0868110
X0862204
X0865157Y0513779
X0871063
X0876968
X0882874Y0525590
X0885826Y0531496
X0882874Y0537401
X0876968
X0874016Y0531496
X0862204
X0858307Y0537780
X0862204Y0543307
X0876968Y0549212
X0879921Y0555118
X0885826Y0543307
X0894685Y0549212
Y0561023
X0900590
X0903543Y0590551
X0900590Y0596456
X0894685
X0888779
X0891732Y0602362
X0897637
X0903543
X0891732Y0590551
X0888779Y0584646
X0876968
X0871063
X0874016Y0590551
X0876968Y0596456
X0871063
X0874016Y0602362
X0876968Y0608267
X0871063
X0859252
X0856299Y0602362
X0859252Y0596456
X0853346
X0856299Y0590551
X0859252Y0584646
X0853346
X0849520Y0574394
X0850393Y0566929
X0856299
X0844488
Y0578740
X0838582
X0832677
X0826771
X0829835Y0574394
X0832677Y0566929
X0826771
X0829724Y0561023
X0826771Y0555118
X0823819Y0549212
X0817913
X0812008
X0806102
X0800197
X0794291
Y0561023
X0791338Y0566929
X0785433
X0782480Y0561023
Y0549212
X0788386Y0537401
X0791338Y0531496
X0788386Y0525590
X0785433Y0519685
X0791338
X0794291Y0513779
X0788386
X0785433Y0507874
X0791338
X0788386Y0501968
Y0490157
X0785433Y0484252
X0791338
X0788386Y0478346
X0782480
X0785433Y0472441
X0791338
X0797244
X0803149
X0809055
X0814960
X0820866
X0826771
X0823819Y0478346
X0817913
X0812008
X0809055Y0484252
X0814960
X0812008Y0490157
X0806102
X0803149Y0484252
X0823819Y0490157
X0829724
X0833772Y0492110
X0823819Y0501968
X0820866Y0507874
X0814960
X0809055
X0812008Y0513779
X0806102
X0809055Y0519685
X0814960
X0812008Y0525590
X0806102
X0809055Y0531496
X0814960
X0820866
X0826771
X0829724Y0537401
X0823819
X0817913
X0812008
X0806102
X0809055Y0543307
X0814960
X0820866
X0826771
X0823819Y0525590
X0812008Y0501968
X0809055Y0555118
X0814960
X0817913Y0561023
X0812008
X0806102
X0803149Y0555118
X0806102Y0572834
X0803149Y0578740
X0809055
X0814960
X0817913Y0584646
X0829724
X0835630
X0832677Y0590551
X0838582
Y0602362
X0841535Y0608267
X0838582Y0614173
X0833772Y0606953
X0829724Y0620079
X0823819
X0817913
X0820866Y0614173
Y0602362
X0814960
X0826771Y0590551
X0803149
X0797244Y0614173
X0800197Y0620079
X0862906Y0621638
X0874016Y0578740
X0936023Y0572834
X0933071Y0566929
X0930228Y0503528
X0936023Y0501968
Y0490157
X0930118
X0933071Y0484252
X0936023Y0478346
X0930118
X0918307
X0912401
X0906496
X0900590
X0897637Y0484252
X0903543
X0909449
X0906496Y0490157
X0900590
X0897637Y0496063
X0915354
X0921260
X0918307Y0501968
X0912401
X0918307Y0490157
X0915354Y0472441
X0921260
X0909449
X0903543
X0879835Y0476756
X0868110Y0472441
Y0496063
X0874016
X0862204
X0859252Y0513779
X0909449Y0519685
X0814960Y0566929
X0779527
X0773622
X0767716
X0761811
X0755905
X0750000
X0744094
X0747047Y0561023
X0752952
X0758858
X0764763
X0770669
X0776575
X0773622Y0555118
X0779527
X0767716
X0761811
X0755905
X0750000
X0744094
X0738189
X0732283
X0726378
X0720472
X0714567
X0708661
X0702756
X0705708Y0561023
X0702756Y0566929
X0708661
X0711614Y0572834
X0717520
X0723425
X0729330
X0726378Y0578740
X0732283
X0729330Y0584646
X0723425
X0717520
X0711614
X0705708
X0702756Y0590551
X0708661
X0714567
X0720472
X0726378
X0732283
X0729330Y0596456
X0723425
X0717520
X0711614
X0705708
X0702756Y0602362
Y0614173
X0705708Y0620079
X0729330
X0732283Y0614173
Y0602362
X0720472Y0578740
X0714567
X0708661
X0702756
X0705708Y0572834
X0720472Y0566929
X0723425Y0549212
X0729330
X0735236
X0741142
X0747047
X0752952
X0758858
X0764763
X0770669
X0767716Y0543307
X0761811
X0755905
X0750000
X0744094
X0738189
X0732283
X0726378
X0720472
X0714567
X0708661
X0702756
X0705708Y0549212
X0711614
X0717520
Y0537401
X0723425
X0729330
X0735236
X0741142
X0747047
X0752952
X0758858
X0764763
X0761811Y0531496
X0767716
X0773622
X0776575Y0537401
X0780622Y0541087
X0776575Y0525590
X0773622Y0519685
X0767716
X0761811
X0755905
X0750000
X0744094
X0738189
X0732283
X0726378
X0720472
X0714567
X0708661
X0702756
X0705708Y0525590
X0711614
X0717520
X0723425
X0729330
X0735236
X0741142
X0747047
X0752952
X0758858
X0764763
Y0513779
X0758858
X0752952
X0747047
X0741142
X0735236
X0729330
X0723425
X0717520
X0711614
X0705708
X0702756Y0507874
X0708661
X0714567
X0720472
X0726378
X0732283
X0738189
X0744094
X0750000
X0755905
X0761811
X0767716
X0773622
X0776575Y0513779
Y0501968
X0780622Y0498173
X0776575Y0490157
X0773622Y0484252
X0779527
X0776575Y0478346
X0773622Y0472441
X0779527
X0767716
X0761811
X0755905
X0750000
X0744094
X0738189
X0732283
X0726378
X0720472
X0717520Y0478346
X0711614
X0705708
X0702756Y0484252
X0708661
X0714567
X0720472
X0723425Y0490157
X0729330
X0726378Y0496063
X0732283
X0735236Y0501968
X0741142
X0747047
X0752952
X0758858
X0764763
Y0490157
X0758858
X0752952
X0747047
X0741142
X0738189Y0484252
X0744094
X0750000
X0755905
X0761811
X0767716
X0764763Y0478346
X0758858
X0752952
X0747047
X0741142
X0735236
X0729330
X0732283Y0484252
X0729330Y0501968
X0723425
X0717520
X0711614
X0705708
X0702756Y0496063
X0708661
X0714567
X0720472
X0717520Y0490157
X0711614
X0705708
X0702756Y0472441
X0708661
Y0531496
X0714567
X0720472
X0726378
X0732283
X0738189
X0744094
X0750000
X0755905
X0741142Y0561023
X0711614Y0537401
X0705708
X0702756Y0531496
Y0625984
X0708661
X0714567
X0720472
X0726378
X0732283
X0797244
X0803149
X0809055
X0814960
X0820866
X0826771
X0832677
X0838582
X0844488
X0850393
X0856299
X0862204
X0868110
X0874016
X0879921
X0885826
X0891732
X0897637
X0903543
X0909449
X0915354
X0921260
X0927165
X0933071
X0938976
X0944882
X0950787
X0956693
X0962598
X0968504
X0974409
X0980315
X0986220
X0992126
X0998031
X1003937
X1009842
X1015748
X1021653
X1116141
X1122047
X1127952
X1133858
X1139763
X1145669
T02
X1122783Y0174429
X1120189Y0180693
X1122783Y0186957
X1129047Y0189551
X1135311Y0186957
X1137906Y0180693
X1135311Y0174429
X1129047Y0171835
X0723894Y0172461
X0726488Y0178724
X0723894Y0184988
X0717630Y0187583
X0711366Y0184988
X0708772Y0178724
X0711366Y0172461
X0717630Y0169866
X1124752Y0605532
X1122157Y0611795
X1124752Y0618059
X1131016Y0620653
X1137280Y0618059
X1139874Y0611795
X1137280Y0605532
X1131016Y0602937
X0723894Y0605532
X0726488Y0611795
X0723894Y0618059
X0717630Y0620653
X0711366Y0618059
X0708772Y0611795
X0711366Y0605532
X0717630Y0602937
T03
X0752079Y0349590
X0761921
X0728457Y0385417
X0718614
X0866252Y0377150
X0876095
X0913496Y0407071
X0923339
T04
X0898732Y0535772
Y0545772
Y0555772
Y0565772
T05
X0959756Y0206283
Y0225969
X0867236Y0251559
X0847551
X0764874
X0745189
X0806961Y0338173
X0816961
X0826961
X0836961
Y0365732
X0826961
X0816961
X0806961
Y0393291
X0816961
X0826961
X0836961
Y0420850
X0826961
X0816961
X0806961
X0913417Y0438567
X0923417
X0912512Y0591953
Y0601953
X0884953
Y0611953
Y0591953
X0849520
Y0601953
Y0611953
X0810150Y0606953
Y0596953
Y0586953
Y0616953
X0798339Y0541087
Y0531087
Y0521087
Y0498173
Y0488173
Y0478173
T06
X0713221Y0438646
X0723220
X0733220
X0743221
X0753221
X0763221
X0773220
X0735465Y0562583
X0725465
X0715465
T07
X1113299Y0308646
Y0328331
Y0517307
Y0536992
T08
X1129047Y0180693
X0717630Y0178724
X1131016Y0611795
X0717630
T09
X1002669Y0182661
X1031016
M30
