G04*
G04 #@! TF.GenerationSoftware,Altium Limited,Altium Designer,21.9.2 (33)*
G04*
G04 Layer_Color=16711935*
%FSLAX25Y25*%
%MOIN*%
G70*
G04*
G04 #@! TF.SameCoordinates,F8EA1493-674E-46F7-B7D1-887F25C7148A*
G04*
G04*
G04 #@! TF.FilePolarity,Negative*
G04*
G01*
G75*
G04:AMPARAMS|DCode=61|XSize=141.86mil|YSize=165.48mil|CornerRadius=37.47mil|HoleSize=0mil|Usage=FLASHONLY|Rotation=270.000|XOffset=0mil|YOffset=0mil|HoleType=Round|Shape=RoundedRectangle|*
%AMROUNDEDRECTD61*
21,1,0.14186,0.09055,0,0,270.0*
21,1,0.06693,0.16548,0,0,270.0*
1,1,0.07493,-0.04528,-0.03347*
1,1,0.07493,-0.04528,0.03347*
1,1,0.07493,0.04528,0.03347*
1,1,0.07493,0.04528,-0.03347*
%
%ADD61ROUNDEDRECTD61*%
%ADD62O,0.16548X0.14186*%
%ADD63O,0.26772X0.31496*%
G04:AMPARAMS|DCode=64|XSize=267.72mil|YSize=314.96mil|CornerRadius=76.77mil|HoleSize=0mil|Usage=FLASHONLY|Rotation=0.000|XOffset=0mil|YOffset=0mil|HoleType=Round|Shape=RoundedRectangle|*
%AMROUNDEDRECTD64*
21,1,0.26772,0.16142,0,0,0.0*
21,1,0.11417,0.31496,0,0,0.0*
1,1,0.15354,0.05709,-0.08071*
1,1,0.15354,-0.05709,-0.08071*
1,1,0.15354,-0.05709,0.08071*
1,1,0.15354,0.05709,0.08071*
%
%ADD64ROUNDEDRECTD64*%
G04:AMPARAMS|DCode=65|XSize=70.87mil|YSize=94.49mil|CornerRadius=19.68mil|HoleSize=0mil|Usage=FLASHONLY|Rotation=270.000|XOffset=0mil|YOffset=0mil|HoleType=Round|Shape=RoundedRectangle|*
%AMROUNDEDRECTD65*
21,1,0.07087,0.05512,0,0,270.0*
21,1,0.03150,0.09449,0,0,270.0*
1,1,0.03937,-0.02756,-0.01575*
1,1,0.03937,-0.02756,0.01575*
1,1,0.03937,0.02756,0.01575*
1,1,0.03937,0.02756,-0.01575*
%
%ADD65ROUNDEDRECTD65*%
%ADD66O,0.09449X0.07087*%
%ADD67O,0.07087X0.09449*%
G04:AMPARAMS|DCode=68|XSize=70.87mil|YSize=94.49mil|CornerRadius=19.68mil|HoleSize=0mil|Usage=FLASHONLY|Rotation=0.000|XOffset=0mil|YOffset=0mil|HoleType=Round|Shape=RoundedRectangle|*
%AMROUNDEDRECTD68*
21,1,0.07087,0.05512,0,0,0.0*
21,1,0.03150,0.09449,0,0,0.0*
1,1,0.03937,0.01575,-0.02756*
1,1,0.03937,-0.01575,-0.02756*
1,1,0.03937,-0.01575,0.02756*
1,1,0.03937,0.01575,0.02756*
%
%ADD68ROUNDEDRECTD68*%
%ADD69O,0.07099X0.08674*%
G04:AMPARAMS|DCode=70|XSize=70.99mil|YSize=86.74mil|CornerRadius=19.75mil|HoleSize=0mil|Usage=FLASHONLY|Rotation=0.000|XOffset=0mil|YOffset=0mil|HoleType=Round|Shape=RoundedRectangle|*
%AMROUNDEDRECTD70*
21,1,0.07099,0.04724,0,0,0.0*
21,1,0.03150,0.08674,0,0,0.0*
1,1,0.03950,0.01575,-0.02362*
1,1,0.03950,-0.01575,-0.02362*
1,1,0.03950,-0.01575,0.02362*
1,1,0.03950,0.01575,0.02362*
%
%ADD70ROUNDEDRECTD70*%
%ADD71O,0.06312X0.07887*%
G04:AMPARAMS|DCode=72|XSize=63.12mil|YSize=78.87mil|CornerRadius=17.78mil|HoleSize=0mil|Usage=FLASHONLY|Rotation=180.000|XOffset=0mil|YOffset=0mil|HoleType=Round|Shape=RoundedRectangle|*
%AMROUNDEDRECTD72*
21,1,0.06312,0.04331,0,0,180.0*
21,1,0.02756,0.07887,0,0,180.0*
1,1,0.03556,-0.01378,0.02165*
1,1,0.03556,0.01378,0.02165*
1,1,0.03556,0.01378,-0.02165*
1,1,0.03556,-0.01378,-0.02165*
%
%ADD72ROUNDEDRECTD72*%
G04:AMPARAMS|DCode=73|XSize=66.93mil|YSize=74.8mil|CornerRadius=19.68mil|HoleSize=0mil|Usage=FLASHONLY|Rotation=270.000|XOffset=0mil|YOffset=0mil|HoleType=Round|Shape=RoundedRectangle|*
%AMROUNDEDRECTD73*
21,1,0.06693,0.03543,0,0,270.0*
21,1,0.02756,0.07480,0,0,270.0*
1,1,0.03937,-0.01772,-0.01378*
1,1,0.03937,-0.01772,0.01378*
1,1,0.03937,0.01772,0.01378*
1,1,0.03937,0.01772,-0.01378*
%
%ADD73ROUNDEDRECTD73*%
%ADD74O,0.07480X0.06693*%
G04:AMPARAMS|DCode=75|XSize=94.49mil|YSize=114.17mil|CornerRadius=27.56mil|HoleSize=0mil|Usage=FLASHONLY|Rotation=0.000|XOffset=0mil|YOffset=0mil|HoleType=Round|Shape=RoundedRectangle|*
%AMROUNDEDRECTD75*
21,1,0.09449,0.05906,0,0,0.0*
21,1,0.03937,0.11417,0,0,0.0*
1,1,0.05512,0.01968,-0.02953*
1,1,0.05512,-0.01968,-0.02953*
1,1,0.05512,-0.01968,0.02953*
1,1,0.05512,0.01968,0.02953*
%
%ADD75ROUNDEDRECTD75*%
%ADD76O,0.09449X0.11417*%
%ADD77O,0.11417X0.09449*%
G04:AMPARAMS|DCode=78|XSize=94.49mil|YSize=114.17mil|CornerRadius=27.56mil|HoleSize=0mil|Usage=FLASHONLY|Rotation=270.000|XOffset=0mil|YOffset=0mil|HoleType=Round|Shape=RoundedRectangle|*
%AMROUNDEDRECTD78*
21,1,0.09449,0.05906,0,0,270.0*
21,1,0.03937,0.11417,0,0,270.0*
1,1,0.05512,-0.02953,-0.01968*
1,1,0.05512,-0.02953,0.01968*
1,1,0.05512,0.02953,0.01968*
1,1,0.05512,0.02953,-0.01968*
%
%ADD78ROUNDEDRECTD78*%
%ADD79C,0.03162*%
%ADD80C,0.24410*%
G36*
X-47244Y90551D02*
X3937D01*
Y-358268D01*
X-43307D01*
Y-291339D01*
X-47244Y-287402D01*
Y90551D01*
D02*
G37*
D61*
X47244Y9843D02*
D03*
Y-198819D02*
D03*
D62*
Y-9843D02*
D03*
Y-218504D02*
D03*
D63*
X-63386Y-344488D02*
D03*
D64*
X-35039D02*
D03*
D65*
X-216535Y84803D02*
D03*
X-181102D02*
D03*
X-267717Y-6063D02*
D03*
Y-48976D02*
D03*
X-255906Y89803D02*
D03*
X-153543Y74803D02*
D03*
D66*
X-216535D02*
D03*
Y64803D02*
D03*
X-181102Y74803D02*
D03*
Y64803D02*
D03*
X-267717Y3937D02*
D03*
Y13937D02*
D03*
Y-38976D02*
D03*
Y-28976D02*
D03*
X-255906Y59803D02*
D03*
Y69803D02*
D03*
Y79803D02*
D03*
X-153543Y64803D02*
D03*
D67*
X-229095Y-188976D02*
D03*
X-239094D02*
D03*
X-249095D02*
D03*
Y-106299D02*
D03*
X-239094D02*
D03*
X-229095D02*
D03*
Y-133858D02*
D03*
X-239094D02*
D03*
X-249095D02*
D03*
X-142638Y-88583D02*
D03*
X-249095Y-161417D02*
D03*
X-239094D02*
D03*
X-229095D02*
D03*
D68*
X-259095Y-188976D02*
D03*
Y-106299D02*
D03*
Y-133858D02*
D03*
X-152638Y-88583D02*
D03*
X-259095Y-161417D02*
D03*
D69*
X-330591Y35433D02*
D03*
X-340591D02*
D03*
X-350591D02*
D03*
X-292835Y-88504D02*
D03*
X-302835D02*
D03*
X-312835D02*
D03*
X-322835D02*
D03*
X-332835D02*
D03*
X-342835D02*
D03*
D70*
X-352835D02*
D03*
D71*
X-347441Y-141732D02*
D03*
X-304134Y-177559D02*
D03*
X-199803Y-150000D02*
D03*
X-142717Y-120079D02*
D03*
D72*
X-337598Y-141732D02*
D03*
X-313976Y-177559D02*
D03*
X-189961Y-150000D02*
D03*
X-152559Y-120079D02*
D03*
D73*
X-167323Y38622D02*
D03*
D74*
Y28622D02*
D03*
Y18622D02*
D03*
Y8622D02*
D03*
D75*
X-320866Y-275590D02*
D03*
X-218504D02*
D03*
D76*
X-301181D02*
D03*
X-198819D02*
D03*
D77*
X-106299Y-320866D02*
D03*
D78*
Y-301181D02*
D03*
D79*
X56728Y-340193D02*
D03*
X62992Y-337598D02*
D03*
X69256Y-352720D02*
D03*
X71850Y-346457D02*
D03*
X54134D02*
D03*
X62992Y-355315D02*
D03*
X69256Y-340193D02*
D03*
X56728Y-352720D02*
D03*
X58697Y90909D02*
D03*
X64961Y93504D02*
D03*
X71224Y78382D02*
D03*
X73819Y84646D02*
D03*
X56102D02*
D03*
X64961Y75787D02*
D03*
X71224Y90909D02*
D03*
X58697Y78382D02*
D03*
X-354689Y-342161D02*
D03*
X-348425Y-339567D02*
D03*
X-342161Y-354689D02*
D03*
X-339567Y-348425D02*
D03*
X-357283D02*
D03*
X-348425Y-357283D02*
D03*
X-342161Y-342161D02*
D03*
X-354689Y-354689D02*
D03*
X-354689Y90909D02*
D03*
X-348425Y93504D02*
D03*
X-342161Y78382D02*
D03*
X-339567Y84646D02*
D03*
X-357283D02*
D03*
X-348425Y75787D02*
D03*
X-342161Y90909D02*
D03*
X-354689Y78382D02*
D03*
D80*
X62992Y-346457D02*
D03*
X64961Y84646D02*
D03*
X-348425Y-348425D02*
D03*
Y84646D02*
D03*
M02*
