G04*
G04 #@! TF.GenerationSoftware,Altium Limited,Altium Designer,21.9.2 (33)*
G04*
G04 Layer_Color=8421504*
%FSLAX25Y25*%
%MOIN*%
G70*
G04*
G04 #@! TF.SameCoordinates,F8EA1493-674E-46F7-B7D1-887F25C7148A*
G04*
G04*
G04 #@! TF.FilePolarity,Positive*
G04*
G01*
G75*
G04:AMPARAMS|DCode=14|XSize=145.67mil|YSize=62.99mil|CornerRadius=15.75mil|HoleSize=0mil|Usage=FLASHONLY|Rotation=0.000|XOffset=0mil|YOffset=0mil|HoleType=Round|Shape=RoundedRectangle|*
%AMROUNDEDRECTD14*
21,1,0.14567,0.03150,0,0,0.0*
21,1,0.11417,0.06299,0,0,0.0*
1,1,0.03150,0.05709,-0.01575*
1,1,0.03150,-0.05709,-0.01575*
1,1,0.03150,-0.05709,0.01575*
1,1,0.03150,0.05709,0.01575*
%
%ADD14ROUNDEDRECTD14*%
G04:AMPARAMS|DCode=15|XSize=31.5mil|YSize=35.43mil|CornerRadius=7.87mil|HoleSize=0mil|Usage=FLASHONLY|Rotation=270.000|XOffset=0mil|YOffset=0mil|HoleType=Round|Shape=RoundedRectangle|*
%AMROUNDEDRECTD15*
21,1,0.03150,0.01968,0,0,270.0*
21,1,0.01575,0.03543,0,0,270.0*
1,1,0.01575,-0.00984,-0.00787*
1,1,0.01575,-0.00984,0.00787*
1,1,0.01575,0.00984,0.00787*
1,1,0.01575,0.00984,-0.00787*
%
%ADD15ROUNDEDRECTD15*%
G04:AMPARAMS|DCode=16|XSize=82.68mil|YSize=66.93mil|CornerRadius=16.73mil|HoleSize=0mil|Usage=FLASHONLY|Rotation=180.000|XOffset=0mil|YOffset=0mil|HoleType=Round|Shape=RoundedRectangle|*
%AMROUNDEDRECTD16*
21,1,0.08268,0.03347,0,0,180.0*
21,1,0.04921,0.06693,0,0,180.0*
1,1,0.03346,-0.02461,0.01673*
1,1,0.03346,0.02461,0.01673*
1,1,0.03346,0.02461,-0.01673*
1,1,0.03346,-0.02461,-0.01673*
%
%ADD16ROUNDEDRECTD16*%
G04:AMPARAMS|DCode=17|XSize=114.17mil|YSize=212.6mil|CornerRadius=28.54mil|HoleSize=0mil|Usage=FLASHONLY|Rotation=180.000|XOffset=0mil|YOffset=0mil|HoleType=Round|Shape=RoundedRectangle|*
%AMROUNDEDRECTD17*
21,1,0.11417,0.15551,0,0,180.0*
21,1,0.05709,0.21260,0,0,180.0*
1,1,0.05709,-0.02854,0.07776*
1,1,0.05709,0.02854,0.07776*
1,1,0.05709,0.02854,-0.07776*
1,1,0.05709,-0.02854,-0.07776*
%
%ADD17ROUNDEDRECTD17*%
G04:AMPARAMS|DCode=18|XSize=82.68mil|YSize=66.93mil|CornerRadius=16.73mil|HoleSize=0mil|Usage=FLASHONLY|Rotation=270.000|XOffset=0mil|YOffset=0mil|HoleType=Round|Shape=RoundedRectangle|*
%AMROUNDEDRECTD18*
21,1,0.08268,0.03347,0,0,270.0*
21,1,0.04921,0.06693,0,0,270.0*
1,1,0.03346,-0.01673,-0.02461*
1,1,0.03346,-0.01673,0.02461*
1,1,0.03346,0.01673,0.02461*
1,1,0.03346,0.01673,-0.02461*
%
%ADD18ROUNDEDRECTD18*%
%ADD19O,0.03543X0.12992*%
G04:AMPARAMS|DCode=20|XSize=334.65mil|YSize=417.32mil|CornerRadius=82.68mil|HoleSize=0mil|Usage=FLASHONLY|Rotation=270.000|XOffset=0mil|YOffset=0mil|HoleType=Round|Shape=RoundedRectangle|*
%AMROUNDEDRECTD20*
21,1,0.33465,0.25197,0,0,270.0*
21,1,0.16929,0.41732,0,0,270.0*
1,1,0.16535,-0.12598,-0.08465*
1,1,0.16535,-0.12598,0.08465*
1,1,0.16535,0.12598,0.08465*
1,1,0.16535,0.12598,-0.08465*
%
%ADD20ROUNDEDRECTD20*%
G04:AMPARAMS|DCode=21|XSize=129.92mil|YSize=35.43mil|CornerRadius=7.87mil|HoleSize=0mil|Usage=FLASHONLY|Rotation=270.000|XOffset=0mil|YOffset=0mil|HoleType=Round|Shape=RoundedRectangle|*
%AMROUNDEDRECTD21*
21,1,0.12992,0.01968,0,0,270.0*
21,1,0.11417,0.03543,0,0,270.0*
1,1,0.01575,-0.00984,-0.05709*
1,1,0.01575,-0.00984,0.05709*
1,1,0.01575,0.00984,0.05709*
1,1,0.01575,0.00984,-0.05709*
%
%ADD21ROUNDEDRECTD21*%
G04:AMPARAMS|DCode=22|XSize=62.99mil|YSize=23.62mil|CornerRadius=5.91mil|HoleSize=0mil|Usage=FLASHONLY|Rotation=0.000|XOffset=0mil|YOffset=0mil|HoleType=Round|Shape=RoundedRectangle|*
%AMROUNDEDRECTD22*
21,1,0.06299,0.01181,0,0,0.0*
21,1,0.05118,0.02362,0,0,0.0*
1,1,0.01181,0.02559,-0.00591*
1,1,0.01181,-0.02559,-0.00591*
1,1,0.01181,-0.02559,0.00591*
1,1,0.01181,0.02559,0.00591*
%
%ADD22ROUNDEDRECTD22*%
%ADD23O,0.06299X0.02362*%
G04:AMPARAMS|DCode=24|XSize=31.5mil|YSize=35.43mil|CornerRadius=7.87mil|HoleSize=0mil|Usage=FLASHONLY|Rotation=180.000|XOffset=0mil|YOffset=0mil|HoleType=Round|Shape=RoundedRectangle|*
%AMROUNDEDRECTD24*
21,1,0.03150,0.01968,0,0,180.0*
21,1,0.01575,0.03543,0,0,180.0*
1,1,0.01575,-0.00787,0.00984*
1,1,0.01575,0.00787,0.00984*
1,1,0.01575,0.00787,-0.00984*
1,1,0.01575,-0.00787,-0.00984*
%
%ADD24ROUNDEDRECTD24*%
%ADD25O,0.01181X0.05512*%
%ADD26O,0.05512X0.01181*%
G04:AMPARAMS|DCode=27|XSize=11.81mil|YSize=55.12mil|CornerRadius=2.95mil|HoleSize=0mil|Usage=FLASHONLY|Rotation=270.000|XOffset=0mil|YOffset=0mil|HoleType=Round|Shape=RoundedRectangle|*
%AMROUNDEDRECTD27*
21,1,0.01181,0.04921,0,0,270.0*
21,1,0.00591,0.05512,0,0,270.0*
1,1,0.00591,-0.02461,-0.00295*
1,1,0.00591,-0.02461,0.00295*
1,1,0.00591,0.02461,0.00295*
1,1,0.00591,0.02461,-0.00295*
%
%ADD27ROUNDEDRECTD27*%
%ADD28R,0.11024X0.03150*%
%ADD29R,0.31496X0.34252*%
G04:AMPARAMS|DCode=30|XSize=82.28mil|YSize=54.72mil|CornerRadius=6.84mil|HoleSize=0mil|Usage=FLASHONLY|Rotation=0.000|XOffset=0mil|YOffset=0mil|HoleType=Round|Shape=RoundedRectangle|*
%AMROUNDEDRECTD30*
21,1,0.08228,0.04104,0,0,0.0*
21,1,0.06860,0.05472,0,0,0.0*
1,1,0.01368,0.03430,-0.02052*
1,1,0.01368,-0.03430,-0.02052*
1,1,0.01368,-0.03430,0.02052*
1,1,0.01368,0.03430,0.02052*
%
%ADD30ROUNDEDRECTD30*%
%ADD31O,0.08228X0.05472*%
G04:AMPARAMS|DCode=32|XSize=29.53mil|YSize=19.68mil|CornerRadius=2.95mil|HoleSize=0mil|Usage=FLASHONLY|Rotation=90.000|XOffset=0mil|YOffset=0mil|HoleType=Round|Shape=RoundedRectangle|*
%AMROUNDEDRECTD32*
21,1,0.02953,0.01378,0,0,90.0*
21,1,0.02362,0.01968,0,0,90.0*
1,1,0.00591,0.00689,0.01181*
1,1,0.00591,0.00689,-0.01181*
1,1,0.00591,-0.00689,-0.01181*
1,1,0.00591,-0.00689,0.01181*
%
%ADD32ROUNDEDRECTD32*%
G04:AMPARAMS|DCode=33|XSize=62.99mil|YSize=49.21mil|CornerRadius=12.3mil|HoleSize=0mil|Usage=FLASHONLY|Rotation=270.000|XOffset=0mil|YOffset=0mil|HoleType=Round|Shape=RoundedRectangle|*
%AMROUNDEDRECTD33*
21,1,0.06299,0.02461,0,0,270.0*
21,1,0.03839,0.04921,0,0,270.0*
1,1,0.02461,-0.01230,-0.01919*
1,1,0.02461,-0.01230,0.01919*
1,1,0.02461,0.01230,0.01919*
1,1,0.02461,0.01230,-0.01919*
%
%ADD33ROUNDEDRECTD33*%
G04:AMPARAMS|DCode=34|XSize=127.95mil|YSize=84.65mil|CornerRadius=21.16mil|HoleSize=0mil|Usage=FLASHONLY|Rotation=270.000|XOffset=0mil|YOffset=0mil|HoleType=Round|Shape=RoundedRectangle|*
%AMROUNDEDRECTD34*
21,1,0.12795,0.04232,0,0,270.0*
21,1,0.08563,0.08465,0,0,270.0*
1,1,0.04232,-0.02116,-0.04282*
1,1,0.04232,-0.02116,0.04282*
1,1,0.04232,0.02116,0.04282*
1,1,0.04232,0.02116,-0.04282*
%
%ADD34ROUNDEDRECTD34*%
G04:AMPARAMS|DCode=35|XSize=39.37mil|YSize=84.65mil|CornerRadius=9.84mil|HoleSize=0mil|Usage=FLASHONLY|Rotation=270.000|XOffset=0mil|YOffset=0mil|HoleType=Round|Shape=RoundedRectangle|*
%AMROUNDEDRECTD35*
21,1,0.03937,0.06496,0,0,270.0*
21,1,0.01968,0.08465,0,0,270.0*
1,1,0.01968,-0.03248,-0.00984*
1,1,0.01968,-0.03248,0.00984*
1,1,0.01968,0.03248,0.00984*
1,1,0.01968,0.03248,-0.00984*
%
%ADD35ROUNDEDRECTD35*%
G04:AMPARAMS|DCode=36|XSize=29.53mil|YSize=19.68mil|CornerRadius=2.95mil|HoleSize=0mil|Usage=FLASHONLY|Rotation=180.000|XOffset=0mil|YOffset=0mil|HoleType=Round|Shape=RoundedRectangle|*
%AMROUNDEDRECTD36*
21,1,0.02953,0.01378,0,0,180.0*
21,1,0.02362,0.01968,0,0,180.0*
1,1,0.00591,-0.01181,0.00689*
1,1,0.00591,0.01181,0.00689*
1,1,0.00591,0.01181,-0.00689*
1,1,0.00591,-0.01181,-0.00689*
%
%ADD36ROUNDEDRECTD36*%
G36*
X-15748Y-220079D02*
X-26772D01*
Y-216929D01*
X-15748D01*
Y-220079D01*
D02*
G37*
G36*
X23602Y-220216D02*
X17106D01*
Y-214665D01*
X23602D01*
Y-220216D01*
D02*
G37*
G36*
X13091D02*
X6594D01*
Y-214665D01*
X13091D01*
Y-220216D01*
D02*
G37*
G36*
X2579D02*
X-3917D01*
Y-214665D01*
X2579D01*
Y-220216D01*
D02*
G37*
G36*
X-15748Y-224803D02*
X-26772D01*
Y-221654D01*
X-15748D01*
Y-224803D01*
D02*
G37*
G36*
X23602Y-228799D02*
X17106D01*
Y-223248D01*
X23602D01*
Y-228799D01*
D02*
G37*
G36*
X13091D02*
X6594D01*
Y-223248D01*
X13091D01*
Y-228799D01*
D02*
G37*
G36*
X2579D02*
X-3917D01*
Y-223248D01*
X2579D01*
Y-228799D01*
D02*
G37*
G36*
X-15748Y-229528D02*
X-26772D01*
Y-226378D01*
X-15748D01*
Y-229528D01*
D02*
G37*
G36*
Y-234252D02*
X-26772D01*
Y-231102D01*
X-15748D01*
Y-234252D01*
D02*
G37*
G36*
X23602Y-237382D02*
X17106D01*
Y-231831D01*
X23602D01*
Y-237382D01*
D02*
G37*
G36*
X13091D02*
X6594D01*
Y-231831D01*
X13091D01*
Y-237382D01*
D02*
G37*
G36*
X2579D02*
X-3917D01*
Y-231831D01*
X2579D01*
Y-237382D01*
D02*
G37*
G36*
X-15748Y-238976D02*
X-26772D01*
Y-235827D01*
X-15748D01*
Y-238976D01*
D02*
G37*
G36*
Y-243701D02*
X-26772D01*
Y-240551D01*
X-15748D01*
Y-243701D01*
D02*
G37*
G36*
X23602Y-245965D02*
X17106D01*
Y-240413D01*
X23602D01*
Y-245965D01*
D02*
G37*
G36*
X13091D02*
X6594D01*
Y-240413D01*
X13091D01*
Y-245965D01*
D02*
G37*
G36*
X2579D02*
X-3917D01*
Y-240413D01*
X2579D01*
Y-245965D01*
D02*
G37*
G36*
X-15748Y-248425D02*
X-26772D01*
Y-245276D01*
X-15748D01*
Y-248425D01*
D02*
G37*
G36*
X23583Y-267500D02*
X17047D01*
Y-261988D01*
X23583D01*
Y-267500D01*
D02*
G37*
G36*
X13032D02*
X6496D01*
Y-261988D01*
X13032D01*
Y-267500D01*
D02*
G37*
G36*
X2480D02*
X-4055D01*
Y-261988D01*
X2480D01*
Y-267500D01*
D02*
G37*
G36*
X23583Y-276043D02*
X17047D01*
Y-270532D01*
X23583D01*
Y-276043D01*
D02*
G37*
G36*
X13032D02*
X6496D01*
Y-270532D01*
X13032D01*
Y-276043D01*
D02*
G37*
G36*
X2480D02*
X-4055D01*
Y-270532D01*
X2480D01*
Y-276043D01*
D02*
G37*
G36*
X23583Y-284587D02*
X17047D01*
Y-279075D01*
X23583D01*
Y-284587D01*
D02*
G37*
G36*
X13032D02*
X6496D01*
Y-279075D01*
X13032D01*
Y-284587D01*
D02*
G37*
G36*
X2480D02*
X-4055D01*
Y-279075D01*
X2480D01*
Y-284587D01*
D02*
G37*
G36*
X23583Y-293130D02*
X17047D01*
Y-287618D01*
X23583D01*
Y-293130D01*
D02*
G37*
G36*
X13032D02*
X6496D01*
Y-287618D01*
X13032D01*
Y-293130D01*
D02*
G37*
G36*
X2480D02*
X-4055D01*
Y-287618D01*
X2480D01*
Y-293130D01*
D02*
G37*
G36*
X23583Y-129705D02*
X17047D01*
Y-124193D01*
X23583D01*
Y-129705D01*
D02*
G37*
G36*
X13032D02*
X6496D01*
Y-124193D01*
X13032D01*
Y-129705D01*
D02*
G37*
G36*
X2480D02*
X-4055D01*
Y-124193D01*
X2480D01*
Y-129705D01*
D02*
G37*
G36*
X23583Y-138248D02*
X17047D01*
Y-132736D01*
X23583D01*
Y-138248D01*
D02*
G37*
G36*
X13032D02*
X6496D01*
Y-132736D01*
X13032D01*
Y-138248D01*
D02*
G37*
G36*
X2480D02*
X-4055D01*
Y-132736D01*
X2480D01*
Y-138248D01*
D02*
G37*
G36*
X23583Y-146791D02*
X17047D01*
Y-141279D01*
X23583D01*
Y-146791D01*
D02*
G37*
G36*
X13032D02*
X6496D01*
Y-141279D01*
X13032D01*
Y-146791D01*
D02*
G37*
G36*
X2480D02*
X-4055D01*
Y-141279D01*
X2480D01*
Y-146791D01*
D02*
G37*
G36*
X23583Y-155335D02*
X17047D01*
Y-149823D01*
X23583D01*
Y-155335D01*
D02*
G37*
G36*
X13032D02*
X6496D01*
Y-149823D01*
X13032D01*
Y-155335D01*
D02*
G37*
G36*
X2480D02*
X-4055D01*
Y-149823D01*
X2480D01*
Y-155335D01*
D02*
G37*
G36*
X-15748Y-176772D02*
X-26772D01*
Y-173622D01*
X-15748D01*
Y-176772D01*
D02*
G37*
G36*
X23602Y-176909D02*
X17106D01*
Y-171358D01*
X23602D01*
Y-176909D01*
D02*
G37*
G36*
X13091D02*
X6594D01*
Y-171358D01*
X13091D01*
Y-176909D01*
D02*
G37*
G36*
X2579D02*
X-3917D01*
Y-171358D01*
X2579D01*
Y-176909D01*
D02*
G37*
G36*
X-15748Y-181496D02*
X-26772D01*
Y-178347D01*
X-15748D01*
Y-181496D01*
D02*
G37*
G36*
X23602Y-185492D02*
X17106D01*
Y-179941D01*
X23602D01*
Y-185492D01*
D02*
G37*
G36*
X13091D02*
X6594D01*
Y-179941D01*
X13091D01*
Y-185492D01*
D02*
G37*
G36*
X2579D02*
X-3917D01*
Y-179941D01*
X2579D01*
Y-185492D01*
D02*
G37*
G36*
X-15748Y-186221D02*
X-26772D01*
Y-183071D01*
X-15748D01*
Y-186221D01*
D02*
G37*
G36*
Y-190945D02*
X-26772D01*
Y-187795D01*
X-15748D01*
Y-190945D01*
D02*
G37*
G36*
X23602Y-194075D02*
X17106D01*
Y-188524D01*
X23602D01*
Y-194075D01*
D02*
G37*
G36*
X13091D02*
X6594D01*
Y-188524D01*
X13091D01*
Y-194075D01*
D02*
G37*
G36*
X2579D02*
X-3917D01*
Y-188524D01*
X2579D01*
Y-194075D01*
D02*
G37*
G36*
X-15748Y-195669D02*
X-26772D01*
Y-192520D01*
X-15748D01*
Y-195669D01*
D02*
G37*
G36*
Y-200394D02*
X-26772D01*
Y-197244D01*
X-15748D01*
Y-200394D01*
D02*
G37*
G36*
X23602Y-202658D02*
X17106D01*
Y-197106D01*
X23602D01*
Y-202658D01*
D02*
G37*
G36*
X13091D02*
X6594D01*
Y-197106D01*
X13091D01*
Y-202658D01*
D02*
G37*
G36*
X2579D02*
X-3917D01*
Y-197106D01*
X2579D01*
Y-202658D01*
D02*
G37*
G36*
X-15748Y-205118D02*
X-26772D01*
Y-201969D01*
X-15748D01*
Y-205118D01*
D02*
G37*
G36*
Y-11417D02*
X-26772D01*
Y-8268D01*
X-15748D01*
Y-11417D01*
D02*
G37*
G36*
X23602Y-11555D02*
X17106D01*
Y-6004D01*
X23602D01*
Y-11555D01*
D02*
G37*
G36*
X13091D02*
X6594D01*
Y-6004D01*
X13091D01*
Y-11555D01*
D02*
G37*
G36*
X2579D02*
X-3917D01*
Y-6004D01*
X2579D01*
Y-11555D01*
D02*
G37*
G36*
X-15748Y-16142D02*
X-26772D01*
Y-12992D01*
X-15748D01*
Y-16142D01*
D02*
G37*
G36*
X23602Y-20138D02*
X17106D01*
Y-14587D01*
X23602D01*
Y-20138D01*
D02*
G37*
G36*
X13091D02*
X6594D01*
Y-14587D01*
X13091D01*
Y-20138D01*
D02*
G37*
G36*
X2579D02*
X-3917D01*
Y-14587D01*
X2579D01*
Y-20138D01*
D02*
G37*
G36*
X-15748Y-20866D02*
X-26772D01*
Y-17717D01*
X-15748D01*
Y-20866D01*
D02*
G37*
G36*
Y-25591D02*
X-26772D01*
Y-22441D01*
X-15748D01*
Y-25591D01*
D02*
G37*
G36*
X23602Y-28721D02*
X17106D01*
Y-23169D01*
X23602D01*
Y-28721D01*
D02*
G37*
G36*
X13091D02*
X6594D01*
Y-23169D01*
X13091D01*
Y-28721D01*
D02*
G37*
G36*
X2579D02*
X-3917D01*
Y-23169D01*
X2579D01*
Y-28721D01*
D02*
G37*
G36*
X-15748Y-30315D02*
X-26772D01*
Y-27165D01*
X-15748D01*
Y-30315D01*
D02*
G37*
G36*
Y-35039D02*
X-26772D01*
Y-31890D01*
X-15748D01*
Y-35039D01*
D02*
G37*
G36*
X23602Y-37303D02*
X17106D01*
Y-31752D01*
X23602D01*
Y-37303D01*
D02*
G37*
G36*
X13091D02*
X6594D01*
Y-31752D01*
X13091D01*
Y-37303D01*
D02*
G37*
G36*
X2579D02*
X-3917D01*
Y-31752D01*
X2579D01*
Y-37303D01*
D02*
G37*
G36*
X-15748Y-39764D02*
X-26772D01*
Y-36614D01*
X-15748D01*
Y-39764D01*
D02*
G37*
G36*
X23583Y-58839D02*
X17047D01*
Y-53327D01*
X23583D01*
Y-58839D01*
D02*
G37*
G36*
X13032D02*
X6496D01*
Y-53327D01*
X13032D01*
Y-58839D01*
D02*
G37*
G36*
X2480D02*
X-4055D01*
Y-53327D01*
X2480D01*
Y-58839D01*
D02*
G37*
G36*
X23583Y-67382D02*
X17047D01*
Y-61870D01*
X23583D01*
Y-67382D01*
D02*
G37*
G36*
X13032D02*
X6496D01*
Y-61870D01*
X13032D01*
Y-67382D01*
D02*
G37*
G36*
X2480D02*
X-4055D01*
Y-61870D01*
X2480D01*
Y-67382D01*
D02*
G37*
G36*
X23583Y-75925D02*
X17047D01*
Y-70413D01*
X23583D01*
Y-75925D01*
D02*
G37*
G36*
X13032D02*
X6496D01*
Y-70413D01*
X13032D01*
Y-75925D01*
D02*
G37*
G36*
X2480D02*
X-4055D01*
Y-70413D01*
X2480D01*
Y-75925D01*
D02*
G37*
G36*
X23583Y-84469D02*
X17047D01*
Y-78957D01*
X23583D01*
Y-84469D01*
D02*
G37*
G36*
X13032D02*
X6496D01*
Y-78957D01*
X13032D01*
Y-84469D01*
D02*
G37*
G36*
X2480D02*
X-4055D01*
Y-78957D01*
X2480D01*
Y-84469D01*
D02*
G37*
G36*
X23583Y78957D02*
X17047D01*
Y84469D01*
X23583D01*
Y78957D01*
D02*
G37*
G36*
X13032D02*
X6496D01*
Y84469D01*
X13032D01*
Y78957D01*
D02*
G37*
G36*
X2480D02*
X-4055D01*
Y84469D01*
X2480D01*
Y78957D01*
D02*
G37*
G36*
X23583Y70413D02*
X17047D01*
Y75925D01*
X23583D01*
Y70413D01*
D02*
G37*
G36*
X13032D02*
X6496D01*
Y75925D01*
X13032D01*
Y70413D01*
D02*
G37*
G36*
X2480D02*
X-4055D01*
Y75925D01*
X2480D01*
Y70413D01*
D02*
G37*
G36*
X23583Y61870D02*
X17047D01*
Y67382D01*
X23583D01*
Y61870D01*
D02*
G37*
G36*
X13032D02*
X6496D01*
Y67382D01*
X13032D01*
Y61870D01*
D02*
G37*
G36*
X2480D02*
X-4055D01*
Y67382D01*
X2480D01*
Y61870D01*
D02*
G37*
G36*
X23583Y53327D02*
X17047D01*
Y58839D01*
X23583D01*
Y53327D01*
D02*
G37*
G36*
X13032D02*
X6496D01*
Y58839D01*
X13032D01*
Y53327D01*
D02*
G37*
G36*
X2480D02*
X-4055D01*
Y58839D01*
X2480D01*
Y53327D01*
D02*
G37*
G36*
X-15748Y31890D02*
X-26772D01*
Y35039D01*
X-15748D01*
Y31890D01*
D02*
G37*
G36*
X23602Y31752D02*
X17106D01*
Y37303D01*
X23602D01*
Y31752D01*
D02*
G37*
G36*
X13091D02*
X6594D01*
Y37303D01*
X13091D01*
Y31752D01*
D02*
G37*
G36*
X2579D02*
X-3917D01*
Y37303D01*
X2579D01*
Y31752D01*
D02*
G37*
G36*
X-15748Y27165D02*
X-26772D01*
Y30315D01*
X-15748D01*
Y27165D01*
D02*
G37*
G36*
X23602Y23169D02*
X17106D01*
Y28721D01*
X23602D01*
Y23169D01*
D02*
G37*
G36*
X13091D02*
X6594D01*
Y28721D01*
X13091D01*
Y23169D01*
D02*
G37*
G36*
X2579D02*
X-3917D01*
Y28721D01*
X2579D01*
Y23169D01*
D02*
G37*
G36*
X-15748Y22441D02*
X-26772D01*
Y25591D01*
X-15748D01*
Y22441D01*
D02*
G37*
G36*
Y17717D02*
X-26772D01*
Y20866D01*
X-15748D01*
Y17717D01*
D02*
G37*
G36*
X23602Y14587D02*
X17106D01*
Y20138D01*
X23602D01*
Y14587D01*
D02*
G37*
G36*
X13091D02*
X6594D01*
Y20138D01*
X13091D01*
Y14587D01*
D02*
G37*
G36*
X2579D02*
X-3917D01*
Y20138D01*
X2579D01*
Y14587D01*
D02*
G37*
G36*
X-15748Y12992D02*
X-26772D01*
Y16142D01*
X-15748D01*
Y12992D01*
D02*
G37*
G36*
Y8268D02*
X-26772D01*
Y11417D01*
X-15748D01*
Y8268D01*
D02*
G37*
G36*
X23602Y6004D02*
X17106D01*
Y11555D01*
X23602D01*
Y6004D01*
D02*
G37*
G36*
X13091D02*
X6594D01*
Y11555D01*
X13091D01*
Y6004D01*
D02*
G37*
G36*
X2579D02*
X-3917D01*
Y11555D01*
X2579D01*
Y6004D01*
D02*
G37*
G36*
X-15748Y3543D02*
X-26772D01*
Y6693D01*
X-15748D01*
Y3543D01*
D02*
G37*
D14*
X-29449Y-267559D02*
D03*
Y-287559D02*
D03*
Y-78898D02*
D03*
Y-58898D02*
D03*
Y58898D02*
D03*
Y78898D02*
D03*
Y-129764D02*
D03*
Y-149764D02*
D03*
D15*
X-281299Y7244D02*
D03*
Y13937D02*
D03*
X-236221Y-301772D02*
D03*
Y-308465D02*
D03*
X-203150Y91496D02*
D03*
Y84803D02*
D03*
X-198031Y91496D02*
D03*
Y84803D02*
D03*
X-281496Y-35669D02*
D03*
Y-28976D02*
D03*
X31496Y-205315D02*
D03*
Y-212008D02*
D03*
X-45276Y-143110D02*
D03*
Y-136417D02*
D03*
Y-280906D02*
D03*
Y-274213D02*
D03*
X-199874Y8465D02*
D03*
Y15157D02*
D03*
X-207748Y8465D02*
D03*
Y15157D02*
D03*
X-170866Y-47835D02*
D03*
Y-54528D02*
D03*
X-175984Y-47835D02*
D03*
Y-54528D02*
D03*
X-181102Y-47835D02*
D03*
Y-54528D02*
D03*
X-325197Y-141535D02*
D03*
Y-134843D02*
D03*
X-200787Y-127362D02*
D03*
Y-120669D02*
D03*
X-186094Y-54528D02*
D03*
Y-47835D02*
D03*
X-131890Y-308465D02*
D03*
Y-301772D02*
D03*
X31496Y3347D02*
D03*
Y-3347D02*
D03*
X-45276Y-72244D02*
D03*
Y-65551D02*
D03*
Y65551D02*
D03*
Y72244D02*
D03*
X-127953Y-87205D02*
D03*
Y-93898D02*
D03*
D16*
X-1181Y-112205D02*
D03*
X-18504D02*
D03*
X38583Y-45276D02*
D03*
X55905D02*
D03*
X38583Y45276D02*
D03*
X55905D02*
D03*
X-18504Y-96457D02*
D03*
X-1181D02*
D03*
X-18504Y96457D02*
D03*
X-1181D02*
D03*
X55905Y-253937D02*
D03*
X38583D02*
D03*
X55905Y-163386D02*
D03*
X38583D02*
D03*
X-1181Y-305118D02*
D03*
X-18504D02*
D03*
D17*
X-227756Y-330709D02*
D03*
X-189567D02*
D03*
X-330118D02*
D03*
X-291929D02*
D03*
D18*
X-253150Y-280315D02*
D03*
Y-262992D02*
D03*
X-150787D02*
D03*
Y-280315D02*
D03*
D19*
X-253150Y-298031D02*
D03*
X-259842D02*
D03*
X-266535D02*
D03*
X-273228D02*
D03*
X-170866D02*
D03*
X-164173D02*
D03*
X-157480D02*
D03*
X-150787D02*
D03*
D20*
X-259842Y-339764D02*
D03*
X-157480D02*
D03*
D21*
X-246457Y-298031D02*
D03*
X-144095D02*
D03*
D22*
X-140551Y-217284D02*
D03*
Y-170039D02*
D03*
Y38622D02*
D03*
Y-8622D02*
D03*
D23*
Y-222284D02*
D03*
Y-227284D02*
D03*
Y-232283D02*
D03*
Y-237283D02*
D03*
Y-242284D02*
D03*
Y-247284D02*
D03*
X-119291D02*
D03*
Y-242284D02*
D03*
Y-237283D02*
D03*
Y-232283D02*
D03*
Y-227284D02*
D03*
Y-222284D02*
D03*
Y-217284D02*
D03*
X-140551Y-175039D02*
D03*
Y-180039D02*
D03*
Y-185039D02*
D03*
Y-190039D02*
D03*
Y-195039D02*
D03*
Y-200039D02*
D03*
X-119291D02*
D03*
Y-195039D02*
D03*
Y-190039D02*
D03*
Y-185039D02*
D03*
Y-180039D02*
D03*
Y-175039D02*
D03*
Y-170039D02*
D03*
Y38622D02*
D03*
Y33622D02*
D03*
Y28622D02*
D03*
Y23622D02*
D03*
Y18622D02*
D03*
Y13622D02*
D03*
Y8622D02*
D03*
X-140551D02*
D03*
Y13622D02*
D03*
Y18622D02*
D03*
Y23622D02*
D03*
Y28622D02*
D03*
Y33622D02*
D03*
Y-13622D02*
D03*
Y-18622D02*
D03*
Y-23622D02*
D03*
Y-28622D02*
D03*
Y-33622D02*
D03*
Y-38622D02*
D03*
X-119291D02*
D03*
Y-33622D02*
D03*
Y-28622D02*
D03*
Y-23622D02*
D03*
Y-18622D02*
D03*
Y-13622D02*
D03*
Y-8622D02*
D03*
D24*
X-187795Y51181D02*
D03*
X-181102D02*
D03*
X-209842D02*
D03*
X-216535D02*
D03*
X-125394Y-210630D02*
D03*
X-118701D02*
D03*
X-125394Y-163386D02*
D03*
X-118701D02*
D03*
X-234842Y69803D02*
D03*
X-241535D02*
D03*
X-234842Y85039D02*
D03*
X-241535D02*
D03*
X-234842Y74803D02*
D03*
X-241535D02*
D03*
X-234842Y79803D02*
D03*
X-241535D02*
D03*
X-41929Y-129921D02*
D03*
X-48622D02*
D03*
Y-267717D02*
D03*
X-41929D02*
D03*
X-95866Y-263779D02*
D03*
X-89173D02*
D03*
X-61614Y-244094D02*
D03*
X-68307D02*
D03*
X-95866Y-216535D02*
D03*
X-89173D02*
D03*
X-68307D02*
D03*
X-61614D02*
D03*
Y-200787D02*
D03*
X-68307D02*
D03*
Y-173228D02*
D03*
X-61614D02*
D03*
X-89173Y-125984D02*
D03*
X-95866D02*
D03*
X-89173Y-173228D02*
D03*
X-95866D02*
D03*
X-46654Y-299213D02*
D03*
X-39961D02*
D03*
X-150197Y-175039D02*
D03*
X-156890D02*
D03*
X-236811Y-88583D02*
D03*
X-230118D02*
D03*
X-236811Y-93701D02*
D03*
X-230118D02*
D03*
X-303740Y-98425D02*
D03*
X-310433D02*
D03*
X-225000Y1575D02*
D03*
X-231693D02*
D03*
X-245472Y-3937D02*
D03*
X-238779D02*
D03*
Y-31496D02*
D03*
X-245472D02*
D03*
X-225000Y-45276D02*
D03*
X-231693D02*
D03*
X-225000Y-29921D02*
D03*
X-231693D02*
D03*
X-37992Y-96457D02*
D03*
X-44685D02*
D03*
X-189567Y-167323D02*
D03*
X-196260D02*
D03*
X-316339Y-159449D02*
D03*
X-309646D02*
D03*
X-223819Y-94095D02*
D03*
X-217126D02*
D03*
X-223819Y-88583D02*
D03*
X-217126D02*
D03*
X-231693Y-8858D02*
D03*
X-225000D02*
D03*
X-231693Y-24606D02*
D03*
X-225000D02*
D03*
X-162008Y-8858D02*
D03*
X-168701D02*
D03*
X-150197Y33622D02*
D03*
X-156890D02*
D03*
X-125394Y-1969D02*
D03*
X-118701D02*
D03*
X-125394Y45276D02*
D03*
X-118701D02*
D03*
X-95866Y-55118D02*
D03*
X-89173D02*
D03*
X-95866Y-7874D02*
D03*
X-89173D02*
D03*
Y35433D02*
D03*
X-95866D02*
D03*
X-89173Y80709D02*
D03*
X-95866D02*
D03*
X-48622Y-58898D02*
D03*
X-41929D02*
D03*
X-61614Y-35433D02*
D03*
X-68307D02*
D03*
Y-7874D02*
D03*
X-61614D02*
D03*
Y7874D02*
D03*
X-68307D02*
D03*
Y35039D02*
D03*
X-61614D02*
D03*
X-41929Y78898D02*
D03*
X-48622D02*
D03*
X-231693Y-40157D02*
D03*
X-225000D02*
D03*
X-231693Y-35039D02*
D03*
X-225000D02*
D03*
D25*
X-190030Y-37008D02*
D03*
X-191999D02*
D03*
X-186093D02*
D03*
X-188062D02*
D03*
X-193967D02*
D03*
X-195936D02*
D03*
X-197904D02*
D03*
X-199873D02*
D03*
X-205778D02*
D03*
X-207747D02*
D03*
X-201841D02*
D03*
X-203810D02*
D03*
X-203810Y-2362D02*
D03*
X-201841D02*
D03*
X-207747D02*
D03*
X-205778D02*
D03*
X-199873D02*
D03*
X-197904D02*
D03*
X-195936D02*
D03*
X-193967D02*
D03*
X-188062D02*
D03*
X-186093D02*
D03*
X-191999D02*
D03*
X-190030D02*
D03*
D26*
X-214173Y-26575D02*
D03*
Y-24606D02*
D03*
Y-30512D02*
D03*
Y-28543D02*
D03*
Y-22638D02*
D03*
Y-20669D02*
D03*
Y-18701D02*
D03*
Y-16732D02*
D03*
Y-10827D02*
D03*
Y-14764D02*
D03*
Y-12795D02*
D03*
X-179528Y-12795D02*
D03*
Y-14764D02*
D03*
Y-8858D02*
D03*
Y-10827D02*
D03*
Y-16732D02*
D03*
Y-18701D02*
D03*
Y-20669D02*
D03*
Y-22638D02*
D03*
Y-28543D02*
D03*
Y-30512D02*
D03*
Y-24606D02*
D03*
Y-26575D02*
D03*
D27*
X-214173Y-8858D02*
D03*
D28*
X-21457Y19291D02*
D03*
X-21260Y38189D02*
D03*
X-21457Y-24016D02*
D03*
X-21260Y-5118D02*
D03*
Y-213779D02*
D03*
X-21457Y-232677D02*
D03*
X-21260Y-170472D02*
D03*
X-21457Y-189370D02*
D03*
D29*
X9843Y21654D02*
D03*
Y-21654D02*
D03*
Y-230315D02*
D03*
Y-187008D02*
D03*
D30*
X-96614Y-182008D02*
D03*
Y-272559D02*
D03*
Y-225315D02*
D03*
Y-134764D02*
D03*
Y73898D02*
D03*
Y-16654D02*
D03*
Y26654D02*
D03*
Y-63898D02*
D03*
D31*
Y-192008D02*
D03*
X-60866D02*
D03*
Y-182008D02*
D03*
X-96614Y-282559D02*
D03*
X-60866D02*
D03*
Y-272559D02*
D03*
X-96614Y-235315D02*
D03*
X-60866D02*
D03*
Y-225315D02*
D03*
X-96614Y-144764D02*
D03*
X-60866D02*
D03*
Y-134764D02*
D03*
X-96614Y63898D02*
D03*
X-60866D02*
D03*
Y73898D02*
D03*
X-96614Y-26654D02*
D03*
X-60866D02*
D03*
Y-16654D02*
D03*
X-96614Y16654D02*
D03*
X-60866D02*
D03*
Y26654D02*
D03*
X-96614Y-73898D02*
D03*
X-60866D02*
D03*
Y-63898D02*
D03*
D32*
X-231201Y-3543D02*
D03*
X-225492D02*
D03*
D33*
X-237795Y-10433D02*
D03*
Y-25000D02*
D03*
X-246457D02*
D03*
Y-10433D02*
D03*
D34*
X-293701Y-141732D02*
D03*
X-167717Y-120079D02*
D03*
D35*
X-316535Y-150787D02*
D03*
Y-141732D02*
D03*
Y-132677D02*
D03*
X-190551Y-111024D02*
D03*
Y-120079D02*
D03*
Y-129134D02*
D03*
D36*
X-205906Y-126870D02*
D03*
Y-121161D02*
D03*
M02*
